<svg xmlns="http://www.w3.org/2000/svg" viewBox="0 0 720 216" width="720" height="216" role="img" aria-label="Languages by lines written across my public repositories"><rect width="720" height="216" rx="16" fill="#f4f8fd" stroke="#cbd8ea"/><text x="28" y="26" font-size="12" fill="#4c5a8a" letter-spacing="2" font-family="ui-monospace,Menlo,monospace">LANGUAGES BY CODE WRITTEN</text><text x="28" y="53" font-size="14" fill="#1a2350" font-family="-apple-system,Segoe UI,Helvetica,sans-serif">Go</text><rect x="150" y="40" width="470" height="18" rx="9" fill="#e4edf9"/><rect x="150" y="40" width="407" height="18" rx="9" fill="#c4663f"/><text x="640" y="53" font-size="13" fill="#4c5a8a" font-family="ui-monospace,Menlo,monospace">86.7%</text><text x="28" y="87" font-size="14" fill="#1a2350" font-family="-apple-system,Segoe UI,Helvetica,sans-serif">Rust</text><rect x="150" y="74" width="470" height="18" rx="9" fill="#e4edf9"/><rect x="150" y="74" width="27" height="18" rx="9" fill="#8e7fd0"/><text x="640" y="87" font-size="13" fill="#4c5a8a" font-family="ui-monospace,Menlo,monospace">5.8%</text><text x="28" y="121" font-size="14" fill="#1a2350" font-family="-apple-system,Segoe UI,Helvetica,sans-serif">JavaScript</text><rect x="150" y="108" width="470" height="18" rx="9" fill="#e4edf9"/><rect x="150" y="108" width="22" height="18" rx="9" fill="#e0a15a"/><text x="640" y="121" font-size="13" fill="#4c5a8a" font-family="ui-monospace,Menlo,monospace">4.7%</text><text x="28" y="155" font-size="14" fill="#1a2350" font-family="-apple-system,Segoe UI,Helvetica,sans-serif">Solidity</text><rect x="150" y="142" width="470" height="18" rx="9" fill="#e4edf9"/><rect x="150" y="142" width="8" height="18" rx="9" fill="#5f8fd0"/><text x="640" y="155" font-size="13" fill="#4c5a8a" font-family="ui-monospace,Menlo,monospace">1.6%</text><text x="28" y="189" font-size="14" fill="#1a2350" font-family="-apple-system,Segoe UI,Helvetica,sans-serif">Python</text><rect x="150" y="176" width="470" height="18" rx="9" fill="#e4edf9"/><rect x="150" y="176" width="8" height="18" rx="9" fill="#b56fa6"/><text x="640" y="189" font-size="13" fill="#4c5a8a" font-family="ui-monospace,Menlo,monospace">1.2%</text></svg>