<svg xmlns="http://www.w3.org/2000/svg" viewBox="0 0 720 284" width="720" height="284" role="img" aria-label="Languages by lines I wrote across all my repositories"><rect width="720" height="284" rx="16" fill="#12122c" stroke="#2f2b57"/><text x="28" y="26" font-size="12" fill="#a9a3d6" letter-spacing="2" font-family="ui-monospace,Menlo,monospace">LANGUAGES BY LINES I WROTE</text><text x="28" y="53" font-size="14" fill="#f4efe6" font-family="-apple-system,Segoe UI,Helvetica,sans-serif">Go</text><rect x="150" y="40" width="470" height="18" rx="9" fill="#1e1b40"/><rect x="150" y="40" width="222" height="18" rx="9" fill="#c4663f"/><text x="640" y="53" font-size="13" fill="#a9a3d6" font-family="ui-monospace,Menlo,monospace">47.1%</text><text x="28" y="87" font-size="14" fill="#f4efe6" font-family="-apple-system,Segoe UI,Helvetica,sans-serif">JavaScript</text><rect x="150" y="74" width="470" height="18" rx="9" fill="#1e1b40"/><rect x="150" y="74" width="125" height="18" rx="9" fill="#8e7fd0"/><text x="640" y="87" font-size="13" fill="#a9a3d6" font-family="ui-monospace,Menlo,monospace">26.7%</text><text x="28" y="121" font-size="14" fill="#f4efe6" font-family="-apple-system,Segoe UI,Helvetica,sans-serif">TypeScript</text><rect x="150" y="108" width="470" height="18" rx="9" fill="#1e1b40"/><rect x="150" y="108" width="80" height="18" rx="9" fill="#e0a15a"/><text x="640" y="121" font-size="13" fill="#a9a3d6" font-family="ui-monospace,Menlo,monospace">17.1%</text><text x="28" y="155" font-size="14" fill="#f4efe6" font-family="-apple-system,Segoe UI,Helvetica,sans-serif">Rust</text><rect x="150" y="142" width="470" height="18" rx="9" fill="#1e1b40"/><rect x="150" y="142" width="15" height="18" rx="9" fill="#5f8fd0"/><text x="640" y="155" font-size="13" fill="#a9a3d6" font-family="ui-monospace,Menlo,monospace">3.1%</text><text x="28" y="189" font-size="14" fill="#f4efe6" font-family="-apple-system,Segoe UI,Helvetica,sans-serif">SQL</text><rect x="150" y="176" width="470" height="18" rx="9" fill="#1e1b40"/><rect x="150" y="176" width="13" height="18" rx="9" fill="#b56fa6"/><text x="640" y="189" font-size="13" fill="#a9a3d6" font-family="ui-monospace,Menlo,monospace">2.7%</text><text x="28" y="223" font-size="14" fill="#f4efe6" font-family="-apple-system,Segoe UI,Helvetica,sans-serif">Python</text><rect x="150" y="210" width="470" height="18" rx="9" fill="#1e1b40"/><rect x="150" y="210" width="12" height="18" rx="9" fill="#6fb59a"/><text x="640" y="223" font-size="13" fill="#a9a3d6" font-family="ui-monospace,Menlo,monospace">2.5%</text><text x="28" y="257" font-size="14" fill="#f4efe6" font-family="-apple-system,Segoe UI,Helvetica,sans-serif">Solidity</text><rect x="150" y="244" width="470" height="18" rx="9" fill="#1e1b40"/><rect x="150" y="244" width="8" height="18" rx="9" fill="#9aa5c8"/><text x="640" y="257" font-size="13" fill="#a9a3d6" font-family="ui-monospace,Menlo,monospace">0.7%</text></svg>